<svg xmlns="http://www.w3.org/2000/svg" xml:space="preserve" width="2000" height="98" data-id="lg_ffdsCQoeoqqmV2zldI" data-version="1" viewBox="0 0 2000 98"><g data-padding="20"><g transform="translate(10 1.747)scale(.96435)"><rect width="469.311" height="97.18" x="362.652" y="-399.233" fill="none" rx="0" ry="0" transform="translate(475.04 400)"/><path fill="#fff" stroke="#ce0f0f" stroke-width="6.45" d="M1120.487 79.097h-24.57v-60.47h23.06q8.86 0 14.19 3.63 5.33 3.64 5.33 10.65 0 4.28-1.89 7.12-1.88 2.83-4.85 4.36-2.96 1.54-6.23 1.92l.13-.17q6.63 1.09 10.89 5.2 4.26 4.12 4.26 11.51 0 6-2.79 9.57t-7.41 5.13q-4.62 1.55-10.12 1.55Zm-17.01-29.73v23.52h17.01q4.91 0 7.68-1.7 2.78-1.71 3.89-4.35 1.11-2.65 1.11-5.5 0-4.07-1.89-6.72t-5.33-3.95-8.15-1.3Zm0-24.52v18.31h15.12q4.96 0 8.48-2.12 3.53-2.13 3.53-7.12 0-3.99-2.71-6.53t-8.88-2.54Zm60.19 54.25h-6.84q-2.69 0-4.7-1.78-2.02-1.79-2.02-4.52v-56.69h7.05v54.8q0 1.39.4 1.85t1.7.46h4.41Zm19.55 1.02q-4.54 0-7.88-1.74-3.34-1.75-5.14-4.77-1.81-3.02-1.81-6.84 0-4.08 2.4-7.52 2.39-3.44 7.41-5.52t12.87-2.08h7.56l-.76.75v-2.47q0-5.46-2.18-8.38-2.19-2.92-7.31-2.92-4.83 0-7.43 2.5-2.61 2.5-2.77 6.7l-7.94-1.81q.38-3.65 2.79-6.65 2.42-3.01 6.47-4.81 4.05-1.81 9.38-1.81 5.51 0 8.97 2.08t5.1 5.98q1.64 3.91 1.64 9.41v20.7q0 1.39.4 1.85t1.7.46h2.56v5.88h-4.49q-2.86 0-4.79-1.78-1.93-1.79-1.93-4.52v-3.19h1.05q-.67 1.76-1.93 3.59t-3.19 3.4q-1.94 1.58-4.6 2.54-2.67.97-6.15.97Zm1.59-5.88q3.49 0 6.47-1.72t4.81-5.4q1.82-3.67 1.82-9.55v-.38h-7.09q-5.59 0-8.8 1.47t-4.56 3.63q-1.34 2.17-1.34 4.31t.97 3.86q.96 1.72 2.89 2.75t4.83 1.03Zm66.28 4.87h-36.7v-6.05l27.21-33.25h-26.12v-6.05h34.6v6.05l-27.63 33.25h28.64Zm27.44 1.01q-6.47 0-11.19-2.9-4.73-2.9-7.29-8.21t-2.56-12.53q0-7.27 2.56-12.6t7.22-8.23 10.96-2.9q3.62 0 7.25 1.16 3.63 1.15 6.63 3.99 3 2.83 4.83 7.76 1.83 4.94 1.83 12.45h-36.75v-5.71h30.62l-2.02 2.65q-.21-5.96-1.93-9.57-1.72-3.62-4.47-5.23-2.75-1.62-6.11-1.62-3.99 0-6.89 2.08t-4.45 6.07-1.55 9.74q0 8.48 3.46 13.1t9.85 4.62q4.57 0 7.7-2.31t4.6-6.68l6.93 2.36q-1.64 3.94-4.37 6.73-2.73 2.8-6.48 4.29-3.76 1.49-8.38 1.49Z" paint-order="stroke"/><rect width="463" height="93.79" x="365.807" y="-397.538" fill="none" rx="0" ry="0" transform="translate(472.63 397.59)"/><path fill="#a50707" stroke="#c51919" stroke-width="5.81" d="M896.007 45.237q0 10.01-3.65 16.72t-10.56 10.09-16.76 3.38h-16.09v-59.25h17.88q9.03 0 15.56 3.31 6.52 3.3 10.07 9.76 3.55 6.47 3.55 15.99Zm-7.26.24q0-7.98-2.65-13.17-2.66-5.18-7.78-7.72-5.13-2.53-12.55-2.53h-9.93v47.46h8.39q12.24 0 18.38-6.04t6.14-18Zm39.6-15.27q1.33 0 2.79.14t2.6.38l-.85 6.24q-1.1-.28-2.44-.44-1.33-.16-2.51-.16-2.67 0-5.04 1.07-2.38 1.07-4.16 3.08t-2.8 4.82q-1.01 2.82-1.01 6.26v23.83h-6.77v-44.41h5.6l.73 8.18h.28q1.38-2.47 3.32-4.52 1.95-2.04 4.52-3.26 2.57-1.21 5.74-1.21Zm52.02 22.92q0 5.47-1.42 9.77-1.41 4.3-4.09 7.26-2.67 2.95-6.46 4.51t-8.57 1.56q-4.46 0-8.17-1.56t-6.4-4.51q-2.7-2.96-4.18-7.26t-1.48-9.77q0-7.29 2.47-12.42 2.48-5.12 7.08-7.82 4.6-2.69 10.96-2.69 6.08 0 10.64 2.71 4.56 2.72 7.09 7.84 2.53 5.13 2.53 12.38Zm-33.8 0q0 5.35 1.42 9.28 1.42 3.94 4.38 6.08 2.96 2.15 7.62 2.15 4.62 0 7.6-2.15 2.98-2.14 4.39-6.08 1.42-3.93 1.42-9.28 0-5.31-1.42-9.18-1.41-3.87-4.37-5.97-2.96-2.11-7.66-2.11-6.93 0-10.15 4.58-3.23 4.58-3.23 12.68Zm66.47-22.92q7.9 0 11.95 3.87 4.06 3.87 4.06 12.42v28.93h-6.65v-28.49q0-5.55-2.53-8.31-2.54-2.75-7.76-2.75-7.38 0-10.38 4.17-3 4.18-3 12.12v23.26h-6.73v-44.41h5.44l1.01 6.4h.36q1.42-2.35 3.61-3.95t4.9-2.43q2.72-.83 5.72-.83Zm46.98-.01q5.67 0 9.73 2.51 4.05 2.51 6.2 7.03 2.14 4.52 2.14 10.56v4.17h-30.67q.12 7.82 3.89 11.92 3.77 4.09 10.61 4.09 4.22 0 7.46-.77t6.73-2.27v5.92q-3.36 1.5-6.67 2.19-3.3.68-7.8.68-6.4 0-11.16-2.61-4.77-2.61-7.4-7.68-2.64-5.07-2.64-12.4 0-7.17 2.42-12.42 2.41-5.25 6.8-8.09 4.4-2.83 10.36-2.83Zm-.08 5.51q-5.39 0-8.59 3.52-3.21 3.53-3.81 9.85h23.5q-.04-3.97-1.23-6.99-1.2-3.02-3.63-4.7t-6.24-1.68Z" paint-order="stroke"/><path fill="#ce0f0f" d="M817.035 23.69a1.209 1.209 0 1 0 0 2.417 1.209 1.209 0 1 0 0-2.418m-54.312-.186a1.209 1.209 0 1 0 0 2.418 1.209 1.209 0 1 0 0-2.418m.186 50.871a1.209 1.209 0 1 0 0 2.418 1.209 1.209 0 1 0 0-2.418"/><path fill="#ce0f0f" d="M789.972 39.778h-.279c-5.394 0-15.438-8.742-19.437-12.462-.93-.837-1.674-1.767-2.046-2.976-.465-1.116-1.116-1.86-1.674-2.418.93-1.209 2.418-2.697 4.743-4.185 5.487-3.534 8.742-7.254 9.765-9.207 1.116-1.953 1.023-2.883-.93-2.976s-6.324 3.348-6.324 3.348-5.859 4.93-9.765 11.625c-1.116-.186-2.697-.186-3.999.93-2.139 1.767-1.674 4.464-.93 5.767a17 17 0 0 1-2.325 1.673c-5.58 3.813-8.742 7.533-9.858 9.393-1.116 1.953-1.023 2.883.93 2.976s6.324-3.348 6.324-3.348 3.906-3.348 7.533-8.184c.744.372 1.86.93 3.255 1.581.372.186.651.372 1.023.558 2.883 2.418 6.417 7.998 9.021 12.555 2.046 3.534 2.046 7.998 0 11.532-2.604 4.65-6.324 10.51-9.207 12.927a2.5 2.5 0 0 1-.93.558c-.651.28-1.116.558-1.581.744-3.906-5.952-8.928-10.23-8.928-10.23s-4.371-3.44-6.324-3.348-2.046 1.023-.93 2.976 4.278 5.673 9.765 9.207c1.581 1.023 2.79 2.046 3.72 2.976-.558.372-.93.651-1.209 1.023-.837.93-1.953 4.278.558 6.324 1.767 1.488 3.813 1.116 4.929.744.279-.093.558-.186.744-.372 3.813 5.487 8.277 9.3 8.277 9.3s4.371 3.441 6.324 3.348 2.046-1.023.93-2.976-4.278-5.673-9.765-9.207c-1.581-1.023-2.697-2.045-3.627-2.882.093-.186.186-.373.279-.651.465-1.21 1.209-2.233 2.139-3.07 3.999-3.72 13.95-12.461 19.437-12.461m-.093.093c5.394 0 15.903 8.742 19.995 12.462.93.837 1.674 1.952 2.139 3.069.186.372.279.65.465.93a17.5 17.5 0 0 1-3.348 2.604c-5.487 3.534-8.742 7.254-9.765 9.207-1.116 1.952-1.023 2.882.93 2.976s6.324-3.349 6.324-3.349 4.464-3.812 8.184-9.207c.093.094.279.094.372.186 1.116.372 3.162.745 4.929-.744 2.511-2.046 1.395-5.394.558-6.324a8.4 8.4 0 0 0-.93-.837c.93-1.023 2.139-2.046 3.906-3.162 5.487-3.534 8.742-7.254 9.765-9.207 1.116-1.953 1.023-2.883-.93-2.976s-6.324 3.348-6.324 3.348-5.115 4.371-9.021 10.416c-.558-.279-1.209-.558-1.953-.93-.372-.185-.651-.372-1.023-.558-2.883-2.418-6.417-7.998-9.021-12.555-2.046-3.534-2.046-7.998 0-11.532 2.604-4.65 6.324-10.509 9.207-12.927a2.2 2.2 0 0 1 1.023-.558c1.488-.65 2.511-1.116 3.255-1.58 3.627 4.928 7.533 8.183 7.533 8.183s4.371 3.441 6.324 3.349 2.046-1.024.93-2.976-4.278-5.673-9.765-9.207c-.93-.558-1.674-1.21-2.325-1.767.651-1.395 1.116-4-.93-5.767-1.302-1.115-2.79-1.115-3.906-.93-4.092-6.603-9.951-11.531-9.951-11.531s-4.371-3.441-6.324-3.349-2.046 1.024-.93 2.976 4.278 5.673 9.765 9.207c2.232 1.488 3.72 2.883 4.743 4.092-.558.465-1.209 1.302-1.674 2.325-.465 1.21-1.209 2.232-2.139 3.07-3.999 3.72-14.229 12.461-19.716 12.461m26.598-17.112a2.336 2.336 0 0 1 2.79 2.79 2.2 2.2 0 0 1-1.674 1.674 2.336 2.336 0 0 1-2.79-2.79 2.2 2.2 0 0 1 1.674-1.674m-53.196 4.185a2.336 2.336 0 0 1-2.79-2.79 2.2 2.2 0 0 1 1.674-1.674 2.336 2.336 0 0 1 2.79 2.79 2.2 2.2 0 0 1-1.674 1.674m.186 50.871a2.336 2.336 0 0 1-2.79-2.79 2.2 2.2 0 0 1 1.674-1.674 2.336 2.336 0 0 1 2.79 2.79 2.2 2.2 0 0 1-1.674 1.674m53.661-.279a2.336 2.336 0 0 1-2.79-2.79 2.2 2.2 0 0 1 1.674-1.674 2.336 2.336 0 0 1 2.79 2.79 2.2 2.2 0 0 1-1.674 1.674"/><path fill="#ce0f0f" d="M816.57 74.188a1.209 1.209 0 1 0 0 2.418 1.209 1.209 0 1 0 0-2.418"/></g><path fill="transparent" stroke="transparent" d="M719.5 0h561v98h-561z"/></g></svg>